<?xml version="1.0" encoding="UTF-8" standalone="no"?>
<svg
   xmlns:dc="http://purl.org/dc/elements/1.1/"
   xmlns:cc="http://creativecommons.org/ns#"
   xmlns:rdf="http://www.w3.org/1999/02/22-rdf-syntax-ns#"
   xmlns:svg="http://www.w3.org/2000/svg"
   xmlns="http://www.w3.org/2000/svg"
   id="svg4"
   version="1.1"
   viewBox="0 0 320 512"
   fill="#606060"
   height="4"
   width="32">
  <metadata
     id="metadata10">
    <rdf:RDF>
      <cc:Work
         rdf:about="">
        <dc:format>image/svg+xml</dc:format>
        <dc:type
           rdf:resource="http://purl.org/dc/dcmitype/StillImage" />
        <dc:title></dc:title>
      </cc:Work>
    </rdf:RDF>
  </metadata>
  <defs
     id="defs8" />
  <path
     style="stroke-width:2.94122577"
     id="path2"
     d="m -996.93628,514.93197 h -736.18542 c -50.976,0 -76.504,-65.14124 -40.4592,-103.2378 l 368.0927,-389.045263 c 22.3438,-23.6156903 58.5746,-23.6156903 80.9185,0 l 368.09266,389.045263 c 36.04769,38.09656 10.51677,103.2378 -40.45924,103.2378 z" />
  <path
     style="stroke-width:2.94122624"
     id="path2-6"
     d="M 42.423465,513.92313 H -693.76189 c -50.97602,0 -76.50407,-65.14124 -40.45924,-103.23782 L -366.12845,21.640047 c 22.34385,-23.6156803 58.57465,-23.6156803 80.9185,0 L 82.882765,410.68531 c 36.047705,38.09658 10.5167,103.23782 -40.4593,103.23782 z" />
  <path
     style="stroke-width:2.94122624"
     id="path2-6-7"
     d="M 1063.4978,515.38599 H 327.31234 c -50.976,0 -76.504,-65.14124 -40.4592,-103.23782 L 654.94579,23.102907 c 22.3439,-23.6156803 58.5747,-23.6156803 80.9185,0 L 1103.9571,412.14817 c 36.0477,38.09658 10.5167,103.23782 -40.4593,103.23782 z" />
  <path
     style="stroke-width:2.94122624"
     id="path2-6-7-9"
     d="m 2067.0178,512.46028 h -736.1855 c -50.976,0 -76.504,-65.14124 -40.4592,-103.23782 L 1658.4657,20.177197 c 22.3439,-23.6156803 58.5747,-23.6156803 80.9185,0 l 368.0929,389.045263 c 36.0476,38.09658 10.5167,103.23782 -40.4593,103.23782 z" />
</svg>
