<?xml version="1.0" encoding="UTF-8" standalone="no"?>
<svg
   xmlns:dc="http://purl.org/dc/elements/1.1/"
   xmlns:cc="http://creativecommons.org/ns#"
   xmlns:rdf="http://www.w3.org/1999/02/22-rdf-syntax-ns#"
   xmlns:svg="http://www.w3.org/2000/svg"
   xmlns="http://www.w3.org/2000/svg"
   width="32"
   height="4"
   fill="#606060"
   viewBox="0 0 320 512"
   version="1.1"
   id="svg4">
  <metadata
     id="metadata10">
    <rdf:RDF>
      <cc:Work
         rdf:about="">
        <dc:format>image/svg+xml</dc:format>
        <dc:type
           rdf:resource="http://purl.org/dc/dcmitype/StillImage" />
        <dc:title></dc:title>
      </cc:Work>
    </rdf:RDF>
  </metadata>
  <defs
     id="defs8" />
  <path
     d="m -996.93628,2.9194523 h -736.18542 c -50.976,0 -76.504,65.1412397 -40.4592,103.2378077 l 368.0927,389.04526 c 22.3438,23.61569 58.5746,23.61569 80.9185,0 L -956.47704,106.15726 C -920.42935,68.060692 -945.96027,2.9194523 -996.93628,2.9194523 Z"
     id="path2"
     style="stroke-width:2.94122577" />
  <path
     d="M 42.423465,3.9282996 H -693.76189 c -50.97602,0 -76.50407,65.1412394 -40.45924,103.2378204 l 368.09268,389.04526 c 22.34385,23.61568 58.57465,23.61568 80.9185,0 L 82.882765,107.16612 C 118.93047,69.069539 93.399465,3.9282996 42.423465,3.9282996 Z"
     id="path2-6"
     style="stroke-width:2.94122624" />
  <path
     d="M 1063.4978,2.4654367 H 327.31234 c -50.976,0 -76.504,65.1412393 -40.4592,103.2378233 l 368.09265,389.04526 c 22.3439,23.61568 58.5747,23.61568 80.9185,0 L 1103.9571,105.70326 C 1140.0048,67.606676 1114.4738,2.4654367 1063.4978,2.4654367 Z"
     id="path2-6-7"
     style="stroke-width:2.94122624" />
  <path
     d="m 2067.0178,5.3911513 h -736.1855 c -50.976,0 -76.504,65.1412387 -40.4592,103.2378187 l 368.0926,389.04526 c 22.3439,23.61568 58.5747,23.61568 80.9185,0 L 2107.4771,108.62897 C 2143.5247,70.53239 2117.9938,5.3911513 2067.0178,5.3911513 Z"
     id="path2-6-7-9"
     style="stroke-width:2.94122624" />
</svg>
