<?xml version="1.0" encoding="UTF-8" standalone="no"?>
<svg
   xmlns:dc="http://purl.org/dc/elements/1.1/"
   xmlns:cc="http://creativecommons.org/ns#"
   xmlns:rdf="http://www.w3.org/1999/02/22-rdf-syntax-ns#"
   xmlns:svg="http://www.w3.org/2000/svg"
   xmlns="http://www.w3.org/2000/svg"
   id="svg4"
   version="1.1"
   viewBox="0 0 320 512"
   fill="#606060"
   height="4"
   width="24">
  <metadata
     id="metadata10">
    <rdf:RDF>
      <cc:Work
         rdf:about="">
        <dc:format>image/svg+xml</dc:format>
        <dc:type
           rdf:resource="http://purl.org/dc/dcmitype/StillImage" />
        <dc:title></dc:title>
      </cc:Work>
    </rdf:RDF>
  </metadata>
  <defs
     id="defs8" />
  <path
     style="stroke-width:2.94122577"
     id="path2"
     d="M -522.97057,2.9194523 H -1259.156 c -50.976,0 -76.504,65.1412397 -40.4592,103.2378077 l 368.09268,389.04526 c 22.34385,23.61569 58.57464,23.61569 80.91849,0 l 368.0927,-389.04526 C -446.46364,68.060692 -471.99456,2.9194523 -522.97057,2.9194523 Z" />
  <path
     style="stroke-width:2.94122624"
     id="path2-6"
     d="m 516.38918,3.9282996 h -736.18536 c -50.97602,0 -76.50407,65.1412394 -40.45924,103.2378204 l 368.09268,389.04526 c 22.34385,23.61568 58.57465,23.61568 80.9185,0 L 556.84848,107.16612 C 592.89618,69.069539 567.36518,3.9282996 516.38918,3.9282996 Z" />
  <path
     style="stroke-width:2.94122624"
     id="path2-6-7"
     d="M 1537.4635,2.4654367 H 801.27805 c -50.976,0 -76.504,65.1412393 -40.4592,103.2378233 l 368.09265,389.04526 c 22.3439,23.61568 58.5747,23.61568 80.9185,0 L 1577.9228,105.70326 C 1613.9705,67.606676 1588.4395,2.4654367 1537.4635,2.4654367 Z" />
</svg>
