<?xml version="1.0" encoding="UTF-8" standalone="no"?>
<svg
   xmlns:dc="http://purl.org/dc/elements/1.1/"
   xmlns:cc="http://creativecommons.org/ns#"
   xmlns:rdf="http://www.w3.org/1999/02/22-rdf-syntax-ns#"
   xmlns:svg="http://www.w3.org/2000/svg"
   xmlns="http://www.w3.org/2000/svg"
   width="24"
   height="4"
   fill="#606060"
   viewBox="0 0 320 512"
   version="1.1"
   id="svg4">
  <metadata
     id="metadata10">
    <rdf:RDF>
      <cc:Work
         rdf:about="">
        <dc:format>image/svg+xml</dc:format>
        <dc:type
           rdf:resource="http://purl.org/dc/dcmitype/StillImage" />
        <dc:title></dc:title>
      </cc:Work>
    </rdf:RDF>
  </metadata>
  <defs
     id="defs8" />
  <path
     d="M -522.97057,513.46912 H -1259.156 c -50.976,0 -76.504,-65.14124 -40.4592,-103.2378 L -931.52252,21.186057 c 22.34385,-23.6156903 58.57464,-23.6156903 80.91849,0 l 368.0927,389.045263 c 36.04769,38.09656 10.51677,103.2378 -40.45924,103.2378 z"
     id="path2"
     style="stroke-width:2.94122577" />
  <path
     d="m 516.38918,512.46028 h -736.18536 c -50.97602,0 -76.50407,-65.14124 -40.45924,-103.23782 L 107.83726,20.177197 c 22.34385,-23.6156803 58.57465,-23.6156803 80.9185,0 L 556.84848,409.22246 c 36.0477,38.09658 10.5167,103.23782 -40.4593,103.23782 z"
     id="path2-6"
     style="stroke-width:2.94122624" />
  <path
     d="M 1537.4635,513.92314 H 801.27805 c -50.976,0 -76.504,-65.14124 -40.4592,-103.23782 L 1128.9115,21.640057 c 22.3439,-23.6156803 58.5747,-23.6156803 80.9185,0 l 368.0928,389.045263 c 36.0477,38.09658 10.5167,103.23782 -40.4593,103.23782 z"
     id="path2-6-7"
     style="stroke-width:2.94122624" />
</svg>
