<?xml version="1.0" encoding="UTF-8" standalone="no"?>
<svg
   xmlns:dc="http://purl.org/dc/elements/1.1/"
   xmlns:cc="http://creativecommons.org/ns#"
   xmlns:rdf="http://www.w3.org/1999/02/22-rdf-syntax-ns#"
   xmlns:svg="http://www.w3.org/2000/svg"
   xmlns="http://www.w3.org/2000/svg"
   id="svg4"
   version="1.1"
   viewBox="0 0 448 512"
   fill="#606060"
   height="16"
   width="16">
  <metadata
     id="metadata10">
    <rdf:RDF>
      <cc:Work
         rdf:about="">
        <dc:format>image/svg+xml</dc:format>
        <dc:type
           rdf:resource="http://purl.org/dc/dcmitype/StillImage" />
        <dc:title></dc:title>
      </cc:Work>
    </rdf:RDF>
  </metadata>
  <defs
     id="defs8" />
  <path
     id="path2"
     d="m 34.9,222.45 -22.2,22.2 c -9.4,9.4 -9.4,24.6 0,33.9 L 207,472.95 c 9.4,9.4 24.6,9.4 33.9,0 l 194.3,-194.3 c 9.4,-9.4 9.4,-24.6 0,-33.9 L 413,222.55 c -9.5,-9.5 -25,-9.3 -34.3,0.4 L 264,343.35 V 55.95 c 0,-13.3 -10.7,-24 -24,-24 h -32 c -13.3,0 -24,10.7 -24,24 v 287.4 L 69.2,222.85 c -9.3,-9.8 -24.8,-10 -34.3,-0.4 z" />
</svg>
