<?xml version="1.0" encoding="UTF-8" standalone="no"?>
<svg
   xmlns:dc="http://purl.org/dc/elements/1.1/"
   xmlns:cc="http://creativecommons.org/ns#"
   xmlns:rdf="http://www.w3.org/1999/02/22-rdf-syntax-ns#"
   xmlns:svg="http://www.w3.org/2000/svg"
   xmlns="http://www.w3.org/2000/svg"
   xmlns:sodipodi="http://sodipodi.sourceforge.net/DTD/sodipodi-0.dtd"
   xmlns:inkscape="http://www.inkscape.org/namespaces/inkscape"
   width="16"
   height="16"
   fill="#A0A0A0"
   viewBox="0 0 448 512"
   version="1.1"
   id="svg4"
   sodipodi:docname="tabbedlineicon.svg"
   inkscape:version="0.92.2 (5c3e80d, 2017-08-06)">
  <metadata
     id="metadata10">
    <rdf:RDF>
      <cc:Work
         rdf:about="">
        <dc:format>image/svg+xml</dc:format>
        <dc:type
           rdf:resource="http://purl.org/dc/dcmitype/StillImage" />
      </cc:Work>
    </rdf:RDF>
  </metadata>
  <defs
     id="defs8" />
  <sodipodi:namedview
     pagecolor="#ffffff"
     bordercolor="#666666"
     borderopacity="1"
     objecttolerance="10"
     gridtolerance="10"
     guidetolerance="10"
     inkscape:pageopacity="0"
     inkscape:pageshadow="2"
     inkscape:window-width="1920"
     inkscape:window-height="1017"
     id="namedview6"
     showgrid="false"
     inkscape:zoom="14.75"
     inkscape:cx="8"
     inkscape:cy="8"
     inkscape:window-x="-8"
     inkscape:window-y="-8"
     inkscape:window-maximized="1"
     inkscape:current-layer="svg4" />
  <path
     d="M 96.503632,171.22795 H 349.32688 c 5.37067,0 9.72397,-5.02228 9.72397,-11.21826 v -28.04566 c 0,-6.19599 -4.3533,-11.21827 -9.72397,-11.21827 H 96.503632 c -5.370671,0 -9.723971,5.02228 -9.723971,11.21827 v 28.04566 c 0,6.19598 4.3533,11.21826 9.723971,11.21826 z m 0,112.18263 H 349.32688 c 5.37067,0 9.72397,-5.02227 9.72397,-11.21826 v -28.04566 c 0,-6.19599 -4.3533,-11.21826 -9.72397,-11.21826 H 96.503632 c -5.370671,0 -9.723971,5.02227 -9.723971,11.21826 v 28.04566 c 0,6.19599 4.3533,11.21826 9.723971,11.21826 z m 0,112.18264 H 349.32688 c 5.37067,0 9.72397,-5.02228 9.72397,-11.21827 V 356.3293 c 0,-6.19599 -4.3533,-11.21827 -9.72397,-11.21827 H 96.503632 c -5.370671,0 -9.723971,5.02228 -9.723971,11.21827 v 28.04565 c 0,6.19599 4.3533,11.21827 9.723971,11.21827 z"
     id="path2"
     inkscape:connector-curvature="0"
     style="stroke-width:0.65277672" />
</svg>
